<!DOCTYPE svg PUBLIC "-//W3C//DTD SVG 1.1//EN" "http://www.w3.org/Graphics/SVG/1.1/DTD/svg11.dtd">
<!-- Uploaded to: SVG Repo, www.svgrepo.com, Transformed by: SVG Repo Mixer Tools -->
<svg version="1.1" id="Layer_1" xmlns="http://www.w3.org/2000/svg" xmlns:xlink="http://www.w3.org/1999/xlink" viewBox="0 0 512 512" xml:space="preserve" width="800px" height="800px" fill="#000000">
<g id="SVGRepo_bgCarrier" stroke-width="0"/>
<g id="SVGRepo_tracerCarrier" stroke-linecap="round" stroke-linejoin="round"/>
<g id="SVGRepo_iconCarrier"> <g> <path style="fill:#6DB618;" d="M465.347,347.413H314.859c-8.315,0-15.058-6.741-15.058-15.058c0-8.316,6.743-15.058,15.058-15.058 h135.43V141.67c0-8.317,6.743-15.058,15.058-15.058c8.315,0,15.058,6.741,15.058,15.058v190.684 C480.405,340.672,473.662,347.413,465.347,347.413z"/> <path style="fill:#6DB618;" d="M244.826,347.413H46.653c-8.315,0-15.058-6.741-15.058-15.058V15.058 C31.595,6.741,38.338,0,46.653,0h418.695c8.315,0,15.058,6.741,15.058,15.058v50.319c0,8.317-6.743,15.058-15.058,15.058 c-8.315,0-15.058-6.741-15.058-15.058V30.116H61.711v287.181h183.116c8.315,0,15.058,6.741,15.058,15.058 C259.884,340.672,253.143,347.413,244.826,347.413z"/> </g> <rect x="102.485" y="70.878" style="fill:#CFF09E;" width="307.047" height="199.127"/> <g> <path style="fill:#6DB618;" d="M409.52,285.066H102.479c-8.315,0-15.058-6.741-15.058-15.058V70.884 c0-8.317,6.743-15.058,15.058-15.058H409.52c8.315,0,15.058,6.741,15.058,15.058v199.124 C424.578,278.324,417.836,285.066,409.52,285.066z M117.537,254.95h276.925V85.942H117.537V254.95z"/> <path style="fill:#6DB618;" d="M455.344,512H56.656c-8.315,0-15.058-6.741-15.058-15.058V395.051 c0-8.317,6.743-15.058,15.058-15.058h56.052c8.315,0,15.058,6.741,15.058,15.058s-6.743,15.058-15.058,15.058H71.714v71.775 h368.574v-71.775H183.695c-8.315,0-15.058-6.741-15.058-15.058s6.743-15.058,15.058-15.058h271.649 c8.315,0,15.058,6.741,15.058,15.058v101.891C470.402,505.258,463.661,512,455.344,512z"/> <path style="fill:#6DB618;" d="M158.303,461.054H130.39c-8.315,0-15.058-6.741-15.058-15.058c0-8.317,6.743-15.058,15.058-15.058 h27.913c8.315,0,15.058,6.741,15.058,15.058C173.361,454.313,166.62,461.054,158.303,461.054z"/> <path style="fill:#6DB618;" d="M269.956,461.054h-27.913c-8.315,0-15.058-6.741-15.058-15.058c0-8.317,6.743-15.058,15.058-15.058 h27.913c8.315,0,15.058,6.741,15.058,15.058C285.014,454.313,278.272,461.054,269.956,461.054z"/> <path style="fill:#6DB618;" d="M381.608,461.054h-27.913c-8.315,0-15.058-6.741-15.058-15.058c0-8.317,6.743-15.058,15.058-15.058 h27.913c8.315,0,15.058,6.741,15.058,15.058C396.666,454.313,389.925,461.054,381.608,461.054z"/> </g> </g>
</svg>