<!DOCTYPE svg PUBLIC "-//W3C//DTD SVG 1.1//EN" "http://www.w3.org/Graphics/SVG/1.1/DTD/svg11.dtd">
<!-- Uploaded to: SVG Repo, www.svgrepo.com, Transformed by: SVG Repo Mixer Tools -->
<svg height="800px" width="800px" version="1.1" id="Layer_1" xmlns="http://www.w3.org/2000/svg" xmlns:xlink="http://www.w3.org/1999/xlink" viewBox="0 0 512 512" xml:space="preserve" fill="#000000">
<g id="SVGRepo_bgCarrier" stroke-width="0"/>
<g id="SVGRepo_tracerCarrier" stroke-linecap="round" stroke-linejoin="round"/>
<g id="SVGRepo_iconCarrier"> <polygon style="fill:#CFF09E;" points="189.656,305.652 160.986,305.652 160.986,276.982 110.49,276.982 110.49,305.652 81.82,305.652 81.82,356.148 110.49,356.148 110.49,384.819 160.986,384.819 160.986,356.148 189.656,356.148 "/> <path style="fill:#6DB618;" d="M160.986,398.884H110.49c-7.768,0-14.066-6.299-14.066-14.066v-14.604H81.819 c-7.768,0-14.066-6.299-14.066-14.066v-50.496c0-7.767,6.297-14.066,14.066-14.066h14.606v-14.604 c0-7.767,6.297-14.066,14.066-14.066h50.494c7.768,0,14.066,6.299,14.066,14.066v14.604h14.606c7.768,0,14.066,6.299,14.066,14.066 v50.496c0,7.767-6.297,14.066-14.066,14.066H175.05v14.604C175.052,392.586,168.755,398.884,160.986,398.884z M124.556,370.752 h22.363v-14.604c0-7.767,6.297-14.066,14.066-14.066h14.606v-22.364h-14.606c-7.768,0-14.066-6.299-14.066-14.066v-14.604h-22.363 v14.604c0,7.767-6.297,14.066-14.066,14.066H95.884v22.364h14.606c7.768,0,14.066,6.299,14.066,14.066V370.752z"/> <circle style="fill:#CFF09E;" cx="379.071" cy="330.896" r="51.101"/> <g> <path style="fill:#6DB618;" d="M379.075,396.07c-35.935,0-65.171-29.236-65.171-65.171s29.236-65.171,65.171-65.171 s65.171,29.236,65.171,65.171S415.01,396.07,379.075,396.07z M379.075,293.861c-20.425,0-37.039,16.616-37.039,37.039 c0,20.423,16.616,37.039,37.039,37.039c20.423,0,37.039-16.616,37.039-37.039C416.114,310.476,399.498,293.861,379.075,293.861z"/> <path style="fill:#6DB618;" d="M372.997,469.904l-0.287-0.001c-16.339,0-32.841-4.576-47.611-13.23 c-14.308-8.385-31.171-14.105-48.766-16.543c-19.61-2.718-34.399-19.601-34.399-39.271v-77.93c0-7.767,6.297-14.066,14.066-14.066 c7.768,0,14.066,6.299,14.066,14.066v77.93c0,5.796,4.259,10.593,10.127,11.406c21.217,2.94,41.664,9.902,59.128,20.135 c10.462,6.13,22.045,9.371,33.497,9.371l0.287,0.001c61.025,0,110.763-49.738,110.763-110.873s-49.738-110.871-110.873-110.871 H139.003C77.868,220.028,28.131,269.765,28.131,330.9s49.736,110.873,110.871,110.873h0.177c11.452,0,23.034-3.241,33.497-9.372 c6.701-3.926,15.32-1.678,19.248,5.024c3.927,6.702,1.678,15.32-5.024,19.247c-14.772,8.656-31.274,13.232-47.721,13.232h-0.177 C62.357,469.904,0,407.547,0,330.9s62.357-139.003,139.003-139.003h233.993C449.643,191.897,512,254.253,512,330.9 S449.644,469.904,372.997,469.904z"/> <path style="fill:#6DB618;" d="M257.407,163.51c-7.768,0-14.066-6.299-14.066-14.066V93.611c0-12.894-10.49-23.383-23.384-23.383 h-2.48c-12.894,0-23.384,10.489-23.384,23.383c0,28.406-23.11,51.517-51.516,51.517h-2.474 c-28.406-0.001-51.516-23.113-51.516-51.516V56.162c0-7.767,6.297-14.066,14.066-14.066s14.066,6.299,14.066,14.066v37.451 c0,12.893,10.49,23.383,23.384,23.384h2.474c12.894,0,23.384-10.49,23.384-23.384c0-28.406,23.11-51.516,51.516-51.516h2.48 c28.406,0,51.516,23.11,51.516,51.514v55.832C271.472,157.212,265.175,163.51,257.407,163.51z"/> </g> </g>
</svg>