<!DOCTYPE svg PUBLIC "-//W3C//DTD SVG 1.1//EN" "http://www.w3.org/Graphics/SVG/1.1/DTD/svg11.dtd">
<!-- Uploaded to: SVG Repo, www.svgrepo.com, Transformed by: SVG Repo Mixer Tools -->
<svg version="1.1" id="Layer_1" xmlns="http://www.w3.org/2000/svg" xmlns:xlink="http://www.w3.org/1999/xlink" viewBox="0 0 512 512" xml:space="preserve" width="800px" height="800px" fill="#000000">
<g id="SVGRepo_bgCarrier" stroke-width="0"/>
<g id="SVGRepo_tracerCarrier" stroke-linecap="round" stroke-linejoin="round"/>
<g id="SVGRepo_iconCarrier"> <path style="fill:#6DB618;" d="M256,322.333c-72.313,0-131.145-58.831-131.145-131.145c0-8.078,6.549-14.626,14.626-14.626 c8.076,0,14.626,6.548,14.626,14.626c0,56.184,45.71,101.894,101.894,101.894s101.894-45.709,101.894-101.894 S312.184,89.294,256,89.294c-8.076,0-14.626-6.548-14.626-14.626S247.924,60.043,256,60.043 c72.313,0,131.145,58.832,131.145,131.145S328.314,322.333,256,322.333z"/> <polygon style="fill:#CFF09E;" points="221.002,132.249 323.089,191.189 221.002,250.128 "/> <path style="fill:#6DB618;" d="M221.002,264.756c-2.526,0-5.05-0.654-7.313-1.96c-4.525-2.612-7.313-7.44-7.313-12.666V132.249 c0-5.226,2.788-10.054,7.313-12.666c4.525-2.612,10.101-2.612,14.626,0l102.088,58.941c4.525,2.612,7.313,7.44,7.313,12.666 s-2.788,10.054-7.313,12.666l-102.088,58.941C226.052,264.102,223.526,264.756,221.002,264.756z M235.628,157.581v67.216 l58.211-33.609L235.628,157.581z"/> <rect x="14.626" y="362.69" style="fill:#CFF09E;" width="482.754" height="72.765"/> <g> <path style="fill:#6DB618;" d="M497.374,5.067H14.626C6.549,5.067,0,11.615,0,19.693v253.887c0,8.078,6.549,14.626,14.626,14.626 s14.626-6.548,14.626-14.626V34.319h453.497v313.74H101.689v-5.694c0-8.078-6.549-14.626-14.626-14.626 s-14.626,6.548-14.626,14.626v5.694H14.626C6.549,348.059,0,354.607,0,362.684v72.765c0,8.078,6.549,14.626,14.626,14.626h482.748 c8.076,0,14.626-6.548,14.626-14.626v-72.765V19.693C512,11.615,505.452,5.067,497.374,5.067z M482.748,420.823H29.252V377.31 h43.186v5.694c0,8.078,6.549,14.626,14.626,14.626c8.076,0,14.626-6.548,14.626-14.626v-5.694h381.059V420.823z"/> <path style="fill:#6DB618;" d="M333.422,506.933H178.58c-8.076,0-14.626-6.548-14.626-14.626s6.549-14.626,14.626-14.626h154.842 c8.076,0,14.626,6.548,14.626,14.626S341.498,506.933,333.422,506.933z"/> </g> </g>
</svg>